<?xml version="1.0" encoding="UTF-8"?>
<svg version="1.1" xmlns="http://www.w3.org/2000/svg" width="147" height="137">
<path d="M0 0 C48.51 0 97.02 0 147 0 C147 45.21 147 90.42 147 137 C98.49 137 49.98 137 0 137 C0 91.79 0 46.58 0 0 Z " fill="#FDFDFD" transform="translate(0,0)"/>
<path d="M0 0 C4.71397452 2.87437471 7.48173884 7.01639745 9.08203125 12.26953125 C9.44716503 15.68857943 9.49784295 19.08314097 9.51953125 22.51953125 C9.55240234 23.42316406 9.58527344 24.32679687 9.61914062 25.2578125 C9.67247499 31.99733645 8.16624269 36.8577064 4.08203125 42.26953125 C-0.206677 46.30345906 -4.03411352 47.60516132 -9.91796875 47.89453125 C-15.80054433 47.60522425 -19.63109134 46.30454383 -23.91796875 42.26953125 C-28.61769906 36.00107228 -29.68663816 30.40216503 -29.48046875 22.70703125 C-29.49142578 21.81306641 -29.50238281 20.91910156 -29.51367188 19.99804688 C-29.44083153 13.35986329 -28.11728338 7.72614116 -23.50634766 2.74438477 C-16.09864057 -3.80876923 -8.72038631 -4.20420669 0 0 Z " fill="#111111" transform="translate(108.91796875,78.73046875)"/>
<path d="M0 0 C5.48631782 2.97650891 8.34146658 7.49189604 10.62890625 13.18359375 C11.26930224 16.73801093 11.28792995 20.14341175 11.19140625 23.74609375 C11.20236328 24.64005859 11.21332031 25.53402344 11.22460938 26.45507812 C11.15160614 33.10810589 9.79922777 38.67020036 5.25268555 43.70874023 C0.97393396 47.56233488 -3.12367613 48.93388068 -8.74609375 49.55859375 C-14.64898534 48.94794979 -19.30070991 46.73686889 -23.24609375 42.24609375 C-27.45743202 36.17681213 -27.76305758 31.14854629 -27.80859375 23.93359375 C-27.84146484 23.02996094 -27.87433594 22.12632813 -27.90820312 21.1953125 C-27.96153749 14.45578855 -26.45530519 9.5954186 -22.37109375 4.18359375 C-16.11654528 -1.69938908 -8.11015801 -2.79245968 0 0 Z " fill="#111111" transform="translate(57.37109375,14.81640625)"/>
<path d="M0 0 C0.81984375 -0.02449219 1.6396875 -0.04898437 2.484375 -0.07421875 C3.27328125 -0.07808594 4.0621875 -0.08195313 4.875 -0.0859375 C5.59429687 -0.09415527 6.31359375 -0.10237305 7.0546875 -0.11083984 C9 0.375 9 0.375 10.73950195 1.92822266 C12.46096472 5.26978761 12.37393812 8.31766058 12.29296875 11.984375 C12.28872391 12.71118469 12.28447906 13.43799438 12.28010559 14.18682861 C12.2633613 16.49993504 12.22571885 18.81215855 12.1875 21.125 C12.17244758 22.69660197 12.15876015 24.26821764 12.14648438 25.83984375 C12.11347195 29.68523415 12.06172056 33.52996756 12 37.375 C12.6199585 37.35542236 13.23991699 37.33584473 13.87866211 37.31567383 C15.09694702 37.29283325 15.09694702 37.29283325 16.33984375 37.26953125 C17.54821899 37.24016479 17.54821899 37.24016479 18.78100586 37.21020508 C21 37.375 21 37.375 23.5625 39.0625 C25.30414195 41.86427182 25.64744805 43.13775975 25 46.375 C22.75524445 49.34342979 21.57135512 50.28095708 17.85546875 50.89257812 C16.64503906 50.89708984 15.43460938 50.90160156 14.1875 50.90625 C13.21139771 50.91199036 13.21139771 50.91199036 12.21557617 50.91784668 C10.84389696 50.92056076 9.47216556 50.91323453 8.10058594 50.89648438 C6.00598315 50.87506119 3.91480916 50.89629637 1.8203125 50.921875 C0.48436746 50.91923163 -0.85157545 50.91410643 -2.1875 50.90625 C-3.39792969 50.90173828 -4.60835937 50.89722656 -5.85546875 50.89257812 C-9.57135512 50.28095708 -10.75524445 49.34342979 -13 46.375 C-13.64744805 43.13775975 -13.30414195 41.86427182 -11.5625 39.0625 C-9 37.375 -9 37.375 0 37.375 C0 29.125 0 20.875 0 12.375 C-2.97 12.375 -5.94 12.375 -9 12.375 C-11.625 10.75 -11.625 10.75 -13 8.375 C-12.9375 5.25 -12.9375 5.25 -12 2.375 C-7.93445018 -0.33536655 -4.77292457 0.0075046 0 0 Z " fill="#0F0F0F" transform="translate(93,13.625)"/>
<path d="M0 0 C1.13888672 -0.02320312 1.13888672 -0.02320312 2.30078125 -0.046875 C3.03683594 -0.04171875 3.77289063 -0.0365625 4.53125 -0.03125 C5.52995117 -0.02448242 5.52995117 -0.02448242 6.54882812 -0.01757812 C9.56241103 0.78182074 10.6778261 1.98061167 12.5 4.5 C12.84939929 7.25086191 12.96885179 9.5883556 12.890625 12.328125 C12.88496521 13.07713074 12.87930542 13.82613647 12.87347412 14.59783936 C12.85114057 16.982552 12.80095386 19.36574408 12.75 21.75 C12.72993091 23.36976991 12.71168085 24.98956346 12.6953125 26.609375 C12.65128624 30.57349966 12.58228298 34.53649232 12.5 38.5 C13.4288501 38.47172119 13.4288501 38.47172119 14.37646484 38.44287109 C15.18809082 38.42820801 15.9997168 38.41354492 16.8359375 38.3984375 C17.6407959 38.37958496 18.4456543 38.36073242 19.27490234 38.34130859 C21.5 38.5 21.5 38.5 24.125 40.125 C25.5 42.5 25.5 42.5 25.4375 45.625 C24.5 48.5 24.5 48.5 21.5 50.5 C17.07318312 50.90976292 12.63728114 50.87160557 8.19384766 50.87060547 C6.00734956 50.87498528 3.82286057 50.91133153 1.63671875 50.94921875 C0.24740273 50.955086 -1.14192287 50.95905601 -2.53125 50.9609375 C-4.42713867 50.97326416 -4.42713867 50.97326416 -6.36132812 50.98583984 C-9.5 50.5 -9.5 50.5 -11.44726562 48.66650391 C-12.93279003 45.60932775 -12.40805818 43.71312896 -11.5 40.5 C-10.84 39.84 -10.18 39.18 -9.5 38.5 C-6.2 38.5 -2.9 38.5 0.5 38.5 C0.5 30.25 0.5 22 0.5 13.5 C-1.81 13.5 -4.12 13.5 -6.5 13.5 C-8.81279611 12.34360194 -10.67409828 11.32590172 -12.5 9.5 C-12.91973221 6.39398168 -12.82261761 4.96318067 -11.01171875 2.36328125 C-7.39736471 -0.31797361 -4.38674913 -0.0893735 0 0 Z " fill="#0E0E0E" transform="translate(42.5,75.5)"/>
<path d="M0 0 C2.8199387 2.8199387 2.28962838 4.92904159 2.32226562 8.78320312 C2.31904297 9.65912109 2.31582031 10.53503906 2.3125 11.4375 C2.32861328 12.30955078 2.34472656 13.18160156 2.36132812 14.08007812 C2.36197266 14.91861328 2.36261719 15.75714844 2.36328125 16.62109375 C2.36775269 17.77242798 2.36775269 17.77242798 2.37231445 18.94702148 C1.90060941 21.5480495 1.09523013 22.4271179 -1 24 C-6.14676424 24.64334553 -6.14676424 24.64334553 -8.66040039 22.74804688 C-11.16815119 19.4756766 -10.46994282 15.46982149 -10.4375 11.5 C-10.45748047 10.63246094 -10.47746094 9.76492187 -10.49804688 8.87109375 C-10.49317492 2.56678312 -10.49317492 2.56678312 -8.16796875 -0.10546875 C-5.11076076 -1.36691133 -3.13789706 -0.886797 0 0 Z " fill="#FAFAFA" transform="translate(53,27)"/>
<path d="M0 0 C2.007866 1.53313456 2.88173164 2.43524179 3.40405273 4.92944336 C3.43601105 7.26662602 3.4578253 9.6000908 3.4375 11.9375 C3.45748047 12.74896484 3.47746094 13.56042969 3.49804688 14.39648438 C3.49486674 18.27307062 3.46349779 20.34971952 1.16796875 23.5703125 C-1 25 -1 25 -4.125 24.9375 C-7 24 -7 24 -9 21 C-9.42161515 18.01384046 -9.32434284 15.01281745 -9.3125 12 C-9.32861328 11.18015625 -9.34472656 10.3603125 -9.36132812 9.515625 C-9.36197266 8.72671875 -9.36261719 7.9378125 -9.36328125 7.125 C-9.36626221 6.40570313 -9.36924316 5.68640625 -9.37231445 4.9453125 C-8.38255932 -0.22607694 -4.62575221 -0.57821903 0 0 Z " fill="#FBFBFB" transform="translate(102,89)"/>
</svg>
